<?xml version="1.0" encoding="utf-8"?>
<!-- Generator: Adobe Illustrator 22.1.0, SVG Export Plug-In . SVG Version: 6.00 Build 0)  -->
<svg version="1.1" id="Layer_1" xmlns="http://www.w3.org/2000/svg" xmlns:xlink="http://www.w3.org/1999/xlink" x="0px" y="0px"
	 viewBox="0 0 1000 800" style="enable-background:new 0 0 1000 800;" xml:space="preserve">
<style type="text/css">
	.st0{fill:#CC932F;}
	.st1{fill:#142A4A;}
</style>
<path class="st0" d="M486.6,343.9c-4.7,1.5-8.3,2.5-11.8,3.7c-5.9,2.1-11.5,4.8-16.2,9.1c-1.1,1-1.9,1.8-3.4,0.5
	c-10.8-8.9-20.8-18.5-25.7-32c-5.2-14.2-0.7-29.3,12-40c-1.4,4.9-3.2,9.3-3.4,14c-0.6,15.3,7.4,25.6,19.3,33.7
	C465.8,338.6,475.3,341.8,486.6,343.9z"/>
<g>
	<path class="st1" d="M222.8,445.3c6.1,1,9.1,4,9.1,8.9c-0.1,7.4-7.3,11.2-14.9,11h-20v-38.6h18.4c4,0,7.2,0.5,10.1,1.9
		c2.9,1.3,4.6,3.9,4.6,7.3c0,4.7-2.4,7.8-7.3,9.3V445.3z M207.8,434.7v7.3h7.3c3.3,0,4.6-1.8,4.6-3.8c0-1.8-1.4-3.5-4.5-3.5H207.8z
		 M216.4,457.3c3.3,0,4.6-2,4.6-4.1c0-2.3-1.6-4.1-5.6-4.1h-7.6v8.2H216.4z"/>
	<path class="st1" d="M252,426.7h10.8v22.6c0,5.1,2.7,7.7,8.1,7.7c5.4,0,8.1-2.6,8.1-7.7v-22.6h10.8v23.1c0,5-1.7,9.1-5,12
		c-3.3,2.9-7.9,4.4-13.9,4.4s-10.7-1.5-14-4.4c-3.3-2.9-5-7-5-12V426.7z"/>
	<path class="st1" d="M312,465.3v-38.6h30.2v8.4h-19.3v6.7h17l-0.1,8.4h-16.9v15.1H312z"/>
	<path class="st1" d="M362,465.3v-38.6h30.2v8.4h-19.3v6.7h17l-0.1,8.4h-16.9v15.1H362z"/>
	<path class="st1" d="M435.8,465.3l-2.1-6.1h-15.4l-2.1,6.1h-11.4l15.8-38.6h10.9l15.8,38.6H435.8z M421.2,451.1h9.7l-4.8-13.9
		L421.2,451.1z"/>
	<path class="st1" d="M475.2,426.7v30.2h18.1v8.4h-28.7v-38.6H475.2z"/>
	<path class="st1" d="M531.6,466.2c-8.7,0-16.1-3.9-19.9-10.1c-1.9-3.1-2.8-6.5-2.8-10.2c0-7.4,4-13.9,11-17.5
		c3.6-1.8,7.5-2.7,11.8-2.7c8.7,0,16,3.9,19.9,10.1c1.9,3.1,2.9,6.5,2.9,10.2c0,7.4-4,13.9-11,17.5
		C539.9,465.3,536,466.2,531.6,466.2z M531.6,456.9c3.3,0,6.1-1.1,8.2-3.2c2.2-2.1,3.3-4.7,3.3-7.8c0-3.1-1.1-5.7-3.3-7.8
		c-2.2-2.1-4.9-3.2-8.2-3.2c-3.3,0-6,1.1-8.2,3.2c-2.1,2.1-3.2,4.7-3.2,7.8c0,3.1,1.1,5.7,3.2,7.8
		C525.6,455.8,528.3,456.9,531.6,456.9z"/>
	<path class="st1" d="M599.1,465.3l-12.5-15.1h-2.5v15.1h-8.2v-38.6h18.5c8.4,0,13.5,4.7,13.5,11.7c0,6.4-4.2,10.7-12.2,11.6
		l13.6,15.3H599.1z M584.1,432.8v11.1h8.7c4.5,0,7-1.8,7-5.5c0-3.8-2.6-5.6-7-5.6H584.1z"/>
	<path class="st1" d="M637.7,426.7v38.6h-8v-38.6H637.7z"/>
	<path class="st1" d="M689.3,426.7h8.7l-16.7,38.7h-7.3l-16.6-38.7h8.7l11.6,29L689.3,426.7z"/>
	<path class="st1" d="M746.9,426.7v6.4h-21v9.4h18.8v6.4h-18.8v9.9h21v6.4h-29.2v-38.6H746.9z"/>
	<path class="st1" d="M792.8,465.3l-12.5-15.1h-2.5v15.1h-8.2v-38.6h18.5c8.4,0,13.5,4.7,13.5,11.7c0,6.4-4.2,10.7-12.2,11.6
		l13.6,15.3H792.8z M777.8,432.8v11.1h8.7c4.5,0,7-1.8,7-5.5c0-3.8-2.6-5.6-7-5.6H777.8z"/>
</g>
<g>
	<path class="st0" d="M364.1,514.5l-1.1-2.8h-8l-1.1,2.8h-6l8.2-17.9h5.7l8.3,17.9H364.1z M356.5,507.9h5.1l-2.5-6.4L356.5,507.9z"
		/>
	<path class="st0" d="M406.5,496.6h6l-8.3,17.9h-5.7l-8.2-17.9h6l5.1,12.6L406.5,496.6z"/>
	<path class="st0" d="M442.2,496.6v17.9h-5.5v-17.9H442.2z"/>
	<path class="st0" d="M482.8,514.5l-1.1-2.8h-8l-1.1,2.8h-6l8.2-17.9h5.7l8.3,17.9H482.8z M475.1,507.9h5.1l-2.5-6.4L475.1,507.9z"
		/>
	<path class="st0" d="M526.6,496.6v3.9h-5.9v14H515v-14h-6v-3.9H526.6z"/>
	<path class="st0" d="M556.6,496.6v17.9h-5.5v-17.9H556.6z"/>
	<path class="st0" d="M594,515c-4.5,0-8.4-1.8-10.4-4.7c-1-1.4-1.5-3-1.5-4.7c0-3.5,2.1-6.4,5.7-8.1c1.9-0.8,3.9-1.3,6.2-1.3
		c4.5,0,8.4,1.8,10.4,4.7c1,1.4,1.5,3,1.5,4.7c0,3.5-2.1,6.4-5.8,8.1C598.3,514.5,596.2,515,594,515z M593.9,510.6
		c1.7,0,3.2-0.5,4.3-1.5c1.1-1,1.7-2.2,1.7-3.6c0-1.4-0.6-2.6-1.7-3.6c-1.1-1-2.6-1.5-4.3-1.5s-3.1,0.5-4.3,1.5
		c-1.1,1-1.7,2.2-1.7,3.6c0,1.4,0.6,2.6,1.7,3.6C590.8,510.1,592.2,510.6,593.9,510.6z"/>
	<path class="st0" d="M652.1,496.6v17.9h-5.8l-9.3-10.8h-0.1l0.1,10.8h-5.7v-17.9h5.8l9.3,10.8h0.1l-0.1-10.8H652.1z"/>
</g>
<path class="st1" d="M558.1,285c0.7,2.1,1.3,4.1,1.8,6c4.2,14.9,0.4,27.3-11.4,37.3c-6.4,5.4-13.7,9.3-21.4,12.4
	c-13.3,5.4-27.3,7.9-41.1,11.5c-7.9,2-15.7,4.5-22.1,9.9c-11.5,9.6-10.5,25.3,1.7,33.6l0,0l1.2,0.8l-0.4-1.7c0,0,0,0,0,0
	c-2-7.7-0.3-11.7,6.7-15.3c4-2.1,8.3-3.3,12.7-4.3c13.2-3.2,26.7-5.1,39.6-9.4l0,0c0.6-0.2,1.2-0.4,1.8-0.7c0.6-0.2,1.1-0.4,1.7-0.6
	c1.4-0.5,2.8-1.1,4.2-1.7c0.5-0.2,1.1-0.5,1.6-0.7c0.2-0.1,0.4-0.2,0.6-0.3c15.2-6.7,27.7-16.7,33.9-31.1c1.6-3.3,2.6-6.7,3.2-10.2
	c0,0,0-0.1,0-0.1l0,0C574.3,307.1,569.1,293,558.1,285z"/>
</svg>
