<?xml version="1.0" standalone="no"?>
<!DOCTYPE svg PUBLIC "-//W3C//DTD SVG 20010904//EN"
 "http://www.w3.org/TR/2001/REC-SVG-20010904/DTD/svg10.dtd">
<svg version="1.0" xmlns="http://www.w3.org/2000/svg"
 width="171.000000pt" height="171.000000pt" viewBox="0 0 171.000000 171.000000"
 preserveAspectRatio="xMidYMid meet">
<metadata>
Created by potrace 1.14, written by Peter Selinger 2001-2017
</metadata>
<g transform="translate(0.000000,171.000000) scale(0.100000,-0.100000)"
fill="#000000" stroke="none">
<path d="M1433 1398 c58 -163 31 -296 -85 -403 -65 -60 -153 -113 -243 -146
-89 -32 -89 -32 -100 -35 -31 -9 -130 -34 -158 -39 -10 -2 -27 -7 -37 -10 -10
-3 -27 -7 -37 -9 -241 -48 -363 -143 -363 -284 0 -55 30 -117 74 -154 31 -26
34 -23 29 30 -6 58 16 90 83 122 39 18 222 65 324 84 202 36 388 121 501 228
150 143 198 337 120 492 -34 67 -43 79 -85 116 -21 18 -28 20 -23 8z"/>
<path d="M207 1352 c-145 -191 -102 -399 126 -607 39 -36 75 -65 80 -65 5 0
26 13 46 29 48 38 82 54 169 82 39 13 72 26 72 29 0 3 -32 14 -72 24 -148 38
-294 138 -353 241 -37 65 -50 144 -36 220 6 35 14 71 17 80 12 31 -13 14 -49
-33z"/>
</g>
</svg>
