<?xml version="1.0" standalone="no"?>
<!DOCTYPE svg PUBLIC "-//W3C//DTD SVG 20010904//EN"
 "http://www.w3.org/TR/2001/REC-SVG-20010904/DTD/svg10.dtd">
<svg version="1.0" xmlns="http://www.w3.org/2000/svg"
 width="160.000000pt" height="160.000000pt" viewBox="0 0 160.000000 160.000000"
 preserveAspectRatio="xMidYMid meet">
<metadata>
Created by potrace 1.14, written by Peter Selinger 2001-2017
</metadata>
<g transform="translate(0.000000,160.000000) scale(0.100000,-0.100000)"
fill="#000000" stroke="none">
<path d="M188 1298 c-21 -23 -51 -67 -66 -97 -23 -49 -27 -68 -27 -147 0 -84
2 -95 38 -167 27 -55 62 -102 122 -165 46 -48 95 -94 109 -101 23 -13 28 -12
61 13 44 34 146 81 209 97 25 6 46 14 46 18 0 4 -33 15 -72 24 -164 40 -310
144 -369 262 -26 54 -31 75 -31 137 0 40 7 94 15 121 8 26 13 47 9 47 -3 0
-22 -19 -44 -42z"/>
<path d="M1400 1333 c0 -5 7 -33 15 -63 43 -161 -11 -290 -165 -395 -106 -72
-200 -108 -448 -172 -119 -30 -239 -66 -267 -80 -140 -70 -195 -193 -138 -308
18 -36 51 -73 76 -87 17 -9 18 -6 12 35 -16 103 36 134 338 202 234 52 284 68
389 120 146 74 238 161 297 285 34 71 36 81 36 175 0 87 -3 107 -26 155 -37
77 -119 169 -119 133z"/>
</g>
</svg>
